# xmcd CD database file
#
# Track frame offsets:
#	150
#	14364
#	29287
#	46424
#	80535
#	89385
#	119939
#	133084
#
# Disc length: 2216 seconds
#
# Revision: 0
# Processed by: cddbd v1.5.2PL0 Copyright (c) Steve Scherf et al.
# Submitted via: CDex 1.70beta2
#
DISCID=6a08a608
DTITLE=Danny Gatton - Unfinished Business (from vinyl)
DYEAR=1900
DGENRE=Blues
TTITLE0=Cherokee
TTITLE1=Lappin' It Up
TTITLE2=Melancholy Serenade
TTITLE3=Sky King
TTITLE4=Homage to Charlie Christian
TTITLE5=Sleepwalk
TTITLE6=Fingers On Fire
TTITLE7=Notcho Blues
EXTD=
EXTT0=
EXTT1=
EXTT2=
EXTT3=
EXTT4=
EXTT5=
EXTT6=
EXTT7=
PLAYORDER=
